<svg xmlns="http://www.w3.org/2000/svg" xmlns:xlink="http://www.w3.org/1999/xlink" contentStyleType="text/css" data-diagram-type="DESCRIPTION" height="716px" preserveAspectRatio="none" style="width:1270px;height:716px;background:#FFFFFF;" version="1.1" viewBox="0 0 1270 716" width="1270px" zoomAndPan="magnify"><?plantuml 1.2026.6?><defs/><g><g class="title" data-source-line="88"><text fill="#000000" font-family="sans-serif" font-size="14" font-weight="700" lengthAdjust="spacing" textLength="122.9307" x="570.4504" y="24.5332">Account &amp; Access</text></g><!--cluster Account & Access--><g class="cluster" data-qualified-name="Account . Access" data-source-line="100" id="ent0005"><rect fill="none" height="455" rx="2.5" ry="2.5" style="stroke:#181818;stroke-width:1;" width="793.5" x="172" y="152.6094"/><text fill="#000000" font-family="sans-serif" font-size="14" font-weight="700" lengthAdjust="spacing" textLength="122.9307" x="507.2847" y="169.1426">Account &amp; Access</text></g><!--entity UC_Register--><g class="entity" data-qualified-name="Account . Access.UC_Register" data-source-line="101" id="ent0006"><ellipse cx="544.1655" cy="207.7425" fill="#F1F1F1" rx="81.1655" ry="18.6331" style="stroke:#181818;stroke-width:0.5;"/><text fill="#000000" font-family="sans-serif" font-size="14" lengthAdjust="spacing" textLength="129.1787" x="479.5762" y="213.0472">Register as a trainee</text></g><!--entity UC_Verify--><g class="entity" data-qualified-name="Account . Access.UC_Verify" data-source-line="102" id="ent0007"><ellipse cx="268.1968" cy="207.5487" fill="#F1F1F1" rx="80.1968" ry="18.4394" style="stroke:#181818;stroke-width:0.5;"/><text fill="#000000" font-family="sans-serif" font-size="14" lengthAdjust="spacing" textLength="126.8271" x="204.7832" y="212.8534">Verify email address</text></g><!--entity UC_SignIn--><g class="entity" data-qualified-name="Account . Access.UC_SignIn" data-source-line="103" id="ent0008"><ellipse cx="543.7689" cy="276.5611" fill="#F1F1F1" rx="33.2689" ry="15.4517" style="stroke:#181818;stroke-width:0.5;"/><text fill="#000000" font-family="sans-serif" font-size="14" lengthAdjust="spacing" textLength="42.8066" x="522.3655" y="281.8658">Sign in</text></g><!--entity UC_Authn--><g class="entity" data-qualified-name="Account . Access.UC_Authn" data-source-line="104" id="ent0009"><ellipse cx="860.2188" cy="240.4531" fill="#F1F1F1" rx="89.7188" ry="20.3438" style="stroke:#181818;stroke-width:0.5;"/><text fill="#000000" font-family="sans-serif" font-size="14" lengthAdjust="spacing" textLength="149.4268" x="785.5054" y="245.7578">Authenticate credentials</text></g><!--entity UC_Guard--><g class="entity" data-qualified-name="Account . Access.UC_Guard" data-source-line="105" id="ent0010"><ellipse cx="860.1034" cy="462.8141" fill="#F1F1F1" rx="73.6034" ry="27.2047" style="stroke:#181818;stroke-width:0.5;"/><text fill="#000000" font-family="sans-serif" font-size="14" lengthAdjust="spacing" textLength="102.7305" x="808.7382" y="460.3169">Enforce role and</text><text fill="#000000" font-family="sans-serif" font-size="14" lengthAdjust="spacing" textLength="90.2754" x="814.9657" y="477.9263">account status</text></g><!--entity UC_SignOut--><g class="entity" data-qualified-name="Account . Access.UC_SignOut" data-source-line="106" id="ent0011"><ellipse cx="267.8255" cy="364.5611" fill="#F1F1F1" rx="39.3255" ry="15.4517" style="stroke:#181818;stroke-width:0.5;"/><text fill="#000000" font-family="sans-serif" font-size="14" lengthAdjust="spacing" textLength="51.3721" x="242.1395" y="369.8658">Sign out</text></g><!--entity UC_Profile--><g class="entity" data-qualified-name="Account . Access.UC_Profile" data-source-line="107" id="ent0012"><ellipse cx="267.802" cy="433.6698" fill="#F1F1F1" rx="78.302" ry="18.0604" style="stroke:#181818;stroke-width:0.5;"/><text fill="#000000" font-family="sans-serif" font-size="14" lengthAdjust="spacing" textLength="122.1855" x="206.7092" y="438.9745">Manage own profile</text></g><!--entity UC_Password--><g class="entity" data-qualified-name="Account . Access.UC_Password" data-source-line="108" id="ent0013"><ellipse cx="268.0661" cy="504.4226" fill="#F1F1F1" rx="74.5661" ry="17.3132" style="stroke:#181818;stroke-width:0.5;"/><text fill="#000000" font-family="sans-serif" font-size="14" lengthAdjust="spacing" textLength="112.8477" x="211.6423" y="509.7273">Change password</text></g><!--entity UC_Notifications--><g class="entity" data-qualified-name="Account . Access.UC_Notifications" data-source-line="109" id="ent0014"><ellipse cx="268.2351" cy="574.5564" fill="#F1F1F1" rx="72.7351" ry="16.947" style="stroke:#181818;stroke-width:0.5;"/><text fill="#000000" font-family="sans-serif" font-size="14" lengthAdjust="spacing" textLength="108.165" x="214.1526" y="579.8611">View notifications</text></g><!--entity UC_Catalogue--><g class="entity" data-qualified-name="Account . Access.UC_Catalogue" data-source-line="110" id="ent0015"><ellipse cx="267.8264" cy="287.8381" fill="#F1F1F1" rx="73.3264" ry="26.2287" style="stroke:#181818;stroke-width:0.5;"/><text fill="#000000" font-family="sans-serif" font-size="14" lengthAdjust="spacing" textLength="70.8135" x="232.4197" y="281.8775">View public</text><text fill="#000000" font-family="sans-serif" font-size="14" lengthAdjust="spacing" textLength="106.627" x="214.513" y="299.4868">course catalogue</text></g><!--entity Guest--><g class="entity" data-qualified-name="Guest" data-source-line="95" id="ent0001"><ellipse cx="65.5" cy="112.6094" fill="#F1F1F1" rx="16" ry="16" style="stroke:#181818;stroke-width:0.5;"/><path d="M65.5,132.6094 C69.5,132.6094 72.5,132.6094 76.5,128.6094 C84.5,128.6094 92.5,136.6094 92.5,144.6094 L92.5,148.6094 C92.5,152.6094 88.5,156.6094 84.5,156.6094 L46.5,156.6094 C42.5,156.6094 38.5,152.6094 38.5,148.6094 L38.5,144.6094 C38.5,136.6094 46.5,128.6094 54.5,128.6094 C58.5,132.6094 61.5,132.6094 65.5,132.6094" fill="#F1F1F1" style="stroke:#181818;stroke-width:0.5;"/><text fill="#000000" font-family="sans-serif" font-size="14" lengthAdjust="spacing" textLength="37.3516" x="46.8242" y="171.6426">Guest</text></g><!--entity Base--><g class="entity" data-qualified-name="Base" data-source-line="96" id="ent0002"><ellipse cx="65.5342" cy="437.6094" fill="#F1F1F1" rx="16" ry="16" style="stroke:#181818;stroke-width:0.5;"/><path d="M65.5342,457.6094 C69.5342,457.6094 72.5342,457.6094 76.5342,453.6094 C84.5342,453.6094 92.5342,461.6094 92.5342,469.6094 L92.5342,473.6094 C92.5342,477.6094 88.5342,481.6094 84.5342,481.6094 L46.5342,481.6094 C42.5342,481.6094 38.5342,477.6094 38.5342,473.6094 L38.5342,469.6094 C38.5342,461.6094 46.5342,453.6094 54.5342,453.6094 C58.5342,457.6094 61.5342,457.6094 65.5342,457.6094" fill="#F1F1F1" style="stroke:#181818;stroke-width:0.5;"/><text fill="#000000" font-family="sans-serif" font-size="14" lengthAdjust="spacing" textLength="119.0684" x="6" y="496.6426">Authenticated User</text></g><!--entity Admin--><g class="entity" data-qualified-name="Admin" data-source-line="97" id="ent0003"><ellipse cx="544.2344" cy="640.6094" fill="#F1F1F1" rx="16" ry="16" style="stroke:#181818;stroke-width:0.5;"/><path d="M544.2344,660.6094 C548.2344,660.6094 551.2344,660.6094 555.2344,656.6094 C563.2344,656.6094 571.2344,664.6094 571.2344,672.6094 L571.2344,676.6094 C571.2344,680.6094 567.2344,684.6094 563.2344,684.6094 L525.2344,684.6094 C521.2344,684.6094 517.2344,680.6094 517.2344,676.6094 L517.2344,672.6094 C517.2344,664.6094 525.2344,656.6094 533.2344,656.6094 C537.2344,660.6094 540.2344,660.6094 544.2344,660.6094" fill="#F1F1F1" style="stroke:#181818;stroke-width:0.5;"/><text fill="#000000" font-family="sans-serif" font-size="14" lengthAdjust="spacing" textLength="82.4688" x="503" y="699.6426">Administrator</text></g><!--entity Auth--><g class="entity" data-qualified-name="Auth" data-source-line="98" id="ent0004"><ellipse cx="1147.5791" cy="226.7188" fill="#F1F1F1" rx="16" ry="16" style="stroke:#181818;stroke-width:0.5;"/><path d="M1147.5791,246.7188 C1151.5791,246.7188 1154.5791,246.7188 1158.5791,242.7188 C1166.5791,242.7188 1174.5791,250.7188 1174.5791,258.7188 L1174.5791,262.7188 C1174.5791,266.7188 1170.5791,270.7188 1166.5791,270.7188 L1128.5791,270.7188 C1124.5791,270.7188 1120.5791,266.7188 1120.5791,262.7188 L1120.5791,258.7188 C1120.5791,250.7188 1128.5791,242.7188 1136.5791,242.7188 C1140.5791,246.7188 1143.5791,246.7188 1147.5791,246.7188" fill="#F1F1F1" style="stroke:#181818;stroke-width:0.5;"/><text fill="#000000" font-family="sans-serif" font-size="14" lengthAdjust="spacing" textLength="101.1582" x="1097" y="285.752">Identity Provider</text><text fill="#000000" font-family="sans-serif" font-size="14" font-style="italic" lengthAdjust="spacing" textLength="59.9102" x="1117.624" y="207.1426">&#171;system&#187;</text></g><g class="entity" data-qualified-name="GMN29" data-source-line="132" id="ent0030"><path d="M1039,425.1094 L1039,458.6094 L933.78,462.6094 L1039,466.6094 L1039,500.5156 A0,0 0 0 0 1039,500.5156 L1255.8315,500.5156 A0,0 0 0 0 1255.8315,500.5156 L1255.8315,435.1094 L1245.8315,425.1094 L1039,425.1094 A0,0 0 0 0 1039,425.1094" fill="#FEFFDD" style="stroke:#181818;stroke-width:0.5;"/><path d="M1245.8315,425.1094 L1245.8315,435.1094 L1255.8315,435.1094 L1245.8315,425.1094" fill="#FEFFDD" style="stroke:#181818;stroke-width:0.5;"/><text fill="#000000" font-family="sans-serif" font-size="13" lengthAdjust="spacing" textLength="186.4688" x="1045" y="443.6045">Re-applied independently by the</text><text fill="#000000" font-family="sans-serif" font-size="13" lengthAdjust="spacing" textLength="154.6226" x="1045" y="459.9561">security rules and by every</text><text fill="#000000" font-family="sans-serif" font-size="13" lengthAdjust="spacing" textLength="156.8062" x="1045" y="476.3076">privileged server operation.</text><text fill="#000000" font-family="sans-serif" font-size="13" lengthAdjust="spacing" textLength="195.8315" x="1045" y="492.6592">A route guard is never the control.</text></g><g class="entity" data-qualified-name="GMN32" data-source-line="139" id="ent0033"><path d="M742,44.6094 L742,128.3672 L587.35,191.8294 L742,136.3672 L742,136.3672 A0,0 0 0 0 742,136.3672 L978.3062,136.3672 A0,0 0 0 0 978.3062,136.3672 L978.3062,54.6094 L968.3062,44.6094 L742,44.6094 A0,0 0 0 0 742,44.6094" fill="#FEFFDD" style="stroke:#181818;stroke-width:0.5;"/><path d="M968.3062,44.6094 L968.3062,54.6094 L978.3062,54.6094 L968.3062,44.6094" fill="#FEFFDD" style="stroke:#181818;stroke-width:0.5;"/><text fill="#000000" font-family="sans-serif" font-size="13" lengthAdjust="spacing" textLength="202.3188" x="748" y="63.1045">Self-registration always produces a</text><text fill="#000000" font-family="sans-serif" font-size="13" font-weight="700" lengthAdjust="spacing" textLength="46.9409" x="748" y="79.4561">student</text><text fill="#000000" font-family="sans-serif" font-size="13" lengthAdjust="spacing" textLength="168.3652" x="794.9409" y="79.4561">. Trainer and admin accounts</text><text fill="#000000" font-family="sans-serif" font-size="13" lengthAdjust="spacing" textLength="174.8779" x="748" y="95.8076">are created or promoted by an</text><text fill="#000000" font-family="sans-serif" font-size="13" lengthAdjust="spacing" textLength="198.7324" x="748" y="112.1592">administrator, and can be disabled</text><text fill="#000000" font-family="sans-serif" font-size="13" lengthAdjust="spacing" textLength="152.4453" x="748" y="128.5107">entirely in system settings.</text></g><!--link Guest to UC_Register--><g class="link" data-entity-1="ent0001" data-entity-2="ent0006" data-link-type="dependency" data-source-line="113" id="lnk16"><path d="M93.39,126.2094 C155.58,106.0294 313.18,63.9794 433,109.6094 C474.83,125.5394 507.7794,161.5589 526.3994,185.2389" fill="none" id="Guest-to-UC_Register" style="stroke:#181818;stroke-width:1;"/><polygon fill="#181818" points="529.49,189.1694,527.0713,179.6221,526.3994,185.2389,520.7826,184.567,529.49,189.1694" style="stroke:#181818;stroke-width:1;stroke-linejoin:miter;stroke-miterlimit:10;"/></g><!--link Guest to UC_SignIn--><g class="link" data-entity-1="ent0001" data-entity-2="ent0008" data-link-type="dependency" data-source-line="114" id="lnk17"><path d="M93.04,131.0194 C157.92,121.3294 326.98,105.5194 433,181.6094 C457.87,199.4594 440.72,222.6194 463,243.6094 C477,256.7994 492.2109,263.6126 508.7109,268.5626" fill="none" id="Guest-to-UC_SignIn" style="stroke:#181818;stroke-width:1;"/><polygon fill="#181818" points="513.5,269.9994,506.029,263.5819,508.7109,268.5626,503.7302,271.2445,513.5,269.9994" style="stroke:#181818;stroke-width:1;stroke-linejoin:miter;stroke-miterlimit:10;"/></g><!--link Guest to UC_Catalogue--><g class="link" data-entity-1="ent0001" data-entity-2="ent0015" data-link-type="dependency" data-source-line="115" id="lnk18"><path d="M93.06,172.4094 C111.03,195.2694 136.45,223.9394 164,243.6094 C178.95,254.2894 192.2731,261.1843 208.9731,268.0243" fill="none" id="Guest-to-UC_Catalogue" style="stroke:#181818;stroke-width:1;"/><polygon fill="#181818" points="213.6,269.9194,206.7876,262.8066,208.9731,268.0243,203.7554,270.2097,213.6,269.9194" style="stroke:#181818;stroke-width:1;stroke-linejoin:miter;stroke-miterlimit:10;"/></g><!--link Base to UC_SignOut--><g class="link" data-entity-1="ent0002" data-entity-2="ent0011" data-link-type="dependency" data-source-line="117" id="lnk19"><path d="M122.27,421.0094 C135.56,412.5894 149.97,404.2494 164,397.6094 C186.58,386.9294 208.6695,379.767 229.3295,374.077" fill="none" id="Base-to-UC_SignOut" style="stroke:#181818;stroke-width:1;"/><polygon fill="#181818" points="234.15,372.7494,224.411,371.2827,229.3295,374.077,226.5352,378.9955,234.15,372.7494" style="stroke:#181818;stroke-width:1;stroke-linejoin:miter;stroke-miterlimit:10;"/></g><!--link Base to UC_Profile--><g class="link" data-entity-1="ent0002" data-entity-2="ent0012" data-link-type="dependency" data-source-line="118" id="lnk20"><path d="M125.03,452.7294 C148.5,449.5694 170.7148,446.5773 194.9748,443.3073" fill="none" id="Base-to-UC_Profile" style="stroke:#181818;stroke-width:1;"/><polygon fill="#181818" points="199.93,442.6394,190.4763,439.8775,194.9748,443.3073,191.545,447.8058,199.93,442.6394" style="stroke:#181818;stroke-width:1;stroke-linejoin:miter;stroke-miterlimit:10;"/></g><!--link Base to UC_Password--><g class="link" data-entity-1="ent0002" data-entity-2="ent0013" data-link-type="dependency" data-source-line="119" id="lnk21"><path d="M125.03,473.4494 C152.77,479.5394 180.8162,485.6977 207.9762,491.6577" fill="none" id="Base-to-UC_Password" style="stroke:#181818;stroke-width:1;"/><polygon fill="#181818" points="212.86,492.7294,204.9265,486.8933,207.9762,491.6577,203.2118,494.7073,212.86,492.7294" style="stroke:#181818;stroke-width:1;stroke-linejoin:miter;stroke-miterlimit:10;"/></g><!--link Base to UC_Notifications--><g class="link" data-entity-1="ent0002" data-entity-2="ent0014" data-link-type="dependency" data-source-line="120" id="lnk22"><path d="M108.78,500.3194 C125.11,514.1494 144.54,528.8694 164,539.6094 C180.95,548.9594 196.0717,554.935 213.8217,560.535" fill="none" id="Base-to-UC_Notifications" style="stroke:#181818;stroke-width:1;"/><polygon fill="#181818" points="218.59,562.0394,211.2105,555.5169,213.8217,560.535,208.8035,563.1462,218.59,562.0394" style="stroke:#181818;stroke-width:1;stroke-linejoin:miter;stroke-miterlimit:10;"/></g><!--link Admin to UC_Guard--><g class="link" data-entity-1="ent0003" data-entity-2="ent0010" data-link-type="dependency" data-source-line="122" id="lnk23"><path d="M585.09,637.9494 C646.59,598.5794 759.1088,526.555 818.3488,488.635" fill="none" id="Admin-to-UC_Guard" style="stroke:#181818;stroke-width:1;"/><polygon fill="#181818" points="822.56,485.9394,812.8235,487.4225,818.3488,488.635,817.1364,494.1604,822.56,485.9394" style="stroke:#181818;stroke-width:1;stroke-linejoin:miter;stroke-miterlimit:10;"/></g><!--link UC_Authn to Auth--><g class="link" data-entity-1="ent0009" data-entity-2="ent0004" data-link-type="dependency" data-source-line="124" id="lnk24"><path d="M949.77,240.6094 C998.22,240.6094 1051.4,240.6094 1091.87,240.6094" fill="none" id="UC_Authn-to-Auth" style="stroke:#181818;stroke-width:1;"/><polygon fill="#181818" points="1096.87,240.6094,1087.87,236.6094,1091.87,240.6094,1087.87,244.6094,1096.87,240.6094" style="stroke:#181818;stroke-width:1;stroke-linejoin:miter;stroke-miterlimit:10;"/></g><!--link UC_SignIn to UC_Authn--><g class="link" data-entity-1="ent0008" data-entity-2="ent0009" data-link-type="dependency" data-source-line="126" id="lnk25"><path d="M576.84,272.9594 C624,267.5494 708.9625,257.8088 774.6525,250.2788" fill="none" id="UC_SignIn-to-UC_Authn" style="stroke:#181818;stroke-width:1;stroke-dasharray:7,7;"/><polygon fill="#181818" points="779.62,249.7094,770.223,246.7604,774.6525,250.2788,771.1341,254.7083,779.62,249.7094" style="stroke:#181818;stroke-width:1;stroke-linejoin:miter;stroke-miterlimit:10;"/><text fill="#000000" font-family="sans-serif" font-size="13" lengthAdjust="spacing" textLength="55.6563" x="656" y="254.1045">&#171;include&#187;</text></g><!--link UC_SignIn to UC_Guard--><g class="link" data-entity-1="ent0008" data-entity-2="ent0010" data-link-type="dependency" data-source-line="127" id="lnk26"><path d="M565.6,288.8094 C617.31,319.4394 748.928,397.4113 816.058,437.1713" fill="none" id="UC_SignIn-to-UC_Guard" style="stroke:#181818;stroke-width:1;stroke-dasharray:7,7;"/><polygon fill="#181818" points="820.36,439.7194,814.6547,431.6913,816.058,437.1713,810.5779,438.5746,820.36,439.7194" style="stroke:#181818;stroke-width:1;stroke-linejoin:miter;stroke-miterlimit:10;"/><text fill="#000000" font-family="sans-serif" font-size="13" lengthAdjust="spacing" textLength="55.6563" x="656" y="339.1045">&#171;include&#187;</text></g><!--link UC_Register to UC_Authn--><g class="link" data-entity-1="ent0006" data-entity-2="ent0009" data-link-type="dependency" data-source-line="128" id="lnk27"><path d="M617.83,215.2594 C665.84,220.3094 723.7874,226.3963 773.3174,231.6063" fill="none" id="UC_Register-to-UC_Authn" style="stroke:#181818;stroke-width:1;stroke-dasharray:7,7;"/><polygon fill="#181818" points="778.29,232.1294,769.7578,227.2098,773.3174,231.6063,768.9209,235.1659,778.29,232.1294" style="stroke:#181818;stroke-width:1;stroke-linejoin:miter;stroke-miterlimit:10;"/><text fill="#000000" font-family="sans-serif" font-size="13" lengthAdjust="spacing" textLength="55.6563" x="656" y="216.1045">&#171;include&#187;</text></g><!--link UC_Verify to UC_Register--><g class="link" data-entity-1="ent0007" data-entity-2="ent0006" data-link-type="dependency" data-source-line="129" id="lnk28"><path d="M348.25,207.6094 C384.29,207.6094 421.85,207.6094 457.98,207.6094" fill="none" id="UC_Verify-to-UC_Register" style="stroke:#181818;stroke-width:1;stroke-dasharray:7,7;"/><polygon fill="#181818" points="462.98,207.6094,453.98,203.6094,457.98,207.6094,453.98,211.6094,462.98,207.6094" style="stroke:#181818;stroke-width:1;stroke-linejoin:miter;stroke-miterlimit:10;"/><text fill="#000000" font-family="sans-serif" font-size="13" lengthAdjust="spacing" textLength="53.4917" x="379" y="204.1045">&#171;extend&#187;</text></g><?plantuml-src VLJ9RXin3BthAmWVUZ1gVq0H64Y38iYXRP0qFGKew15dB4IM1bhY3eh-UqdDKZakUfF8n_sHoIHBSDqqFhi4x-H5CIfbgKsGF0JJ7H9e4wX9nZiLNuphCU0HuW6rFndNGOisKgNfiNd1ZXxJmAx545rdQm0soOTHZIUA_aXA5HciRZF5j0ACK5wp-3gd0xba6aoauIbIA9YFo85dY3uQPs8AoD-YBP9PVQV5FWrm7_ohqPC3yGjNLt68YOwxdL9BkkpmJLDMy4i1v4WDHuNL0tKSZOAuGU2mnX4LfqytFsPbRV2TWca7e2CQ2wXrA3v7_AYhqO-cSs3S393ldQi1TKkW2LJguqdC5g8_C_ZaMXyQdeYNlZlzx72gC2PCUJ6ypHZqHIe-fpgNhpdLaC_eUEBWJmxwu5jZbqxSZzyQV7FW3XFJ9CQJ3tf1Jl-pdXawWVF9j58d4t39yaijl33fyzwQvjbnVO6534FhkxnaTJCBr6-b2jDWizcTJUvCEhN_JFRNXn8Urb3fJYsRct0ccykjXUTLgSBWMJVEHSsZBM9v5T6O86otksNsy86PRLnZioQczWMe-Bi4BRp-lw-9pHDeCH8S_Kpaj6mJJuwc4-BRcbiFjC6-juQNsJXDFUEPldQ0_G1CQqRmE7EGVGtPKXI-YevUASYQzC6ySaCxjkTRm4BmFONIjYshhvdacKDtfKGJmOcXU8R6kyGRi5KSKfX5_yYosjv7ikqcbF_e7j2US8X2SvqRoOnHwtLCMIfOhxVmhPo2K5B6Ci1fpuIc6CgobZF6Pucz7BsykJQKRSNwYhqlFXfqi2U-mH7tbgHxikc1k5liUpnTt8MK-1R7ggu_?></g></svg>