<svg xmlns="http://www.w3.org/2000/svg" xmlns:xlink="http://www.w3.org/1999/xlink" contentStyleType="text/css" data-diagram-type="DESCRIPTION" height="981px" preserveAspectRatio="none" style="width:1306px;height:981px;background:#FFFFFF;" version="1.1" viewBox="0 0 1306 981" width="1306px" zoomAndPan="magnify"><?plantuml 1.2026.6?><defs/><g><g class="title" data-source-line="315"><text fill="#000000" font-family="sans-serif" font-size="14" font-weight="700" lengthAdjust="spacing" textLength="154.0479" x="572.7209" y="24.5332">Assessment &amp; Grading</text></g><!--cluster Authoring--><g class="cluster" data-qualified-name="Authoring" data-source-line="327" id="ent0005"><rect fill="none" height="175" rx="2.5" ry="2.5" style="stroke:#181818;stroke-width:1;" width="541" x="132" y="678.1094"/><text fill="#000000" font-family="sans-serif" font-size="14" font-weight="700" lengthAdjust="spacing" textLength="66.8691" x="369.0654" y="694.6426">Authoring</text></g><!--cluster Taking & grading--><g class="cluster" data-qualified-name="Taking . grading" data-source-line="334" id="ent0010"><rect fill="none" height="471" rx="2.5" ry="2.5" style="stroke:#181818;stroke-width:1;" width="903" x="111" y="136.1094"/><text fill="#000000" font-family="sans-serif" font-size="14" font-weight="700" lengthAdjust="spacing" textLength="114.3379" x="505.3311" y="152.6426">Taking &amp; grading</text></g><!--entity UC_Author--><g class="entity" data-qualified-name="Authoring.UC_Author" data-source-line="328" id="ent0006"><ellipse cx="226.8513" cy="731.9796" fill="#F1F1F1" rx="77.3513" ry="17.8703" style="stroke:#181818;stroke-width:0.5;"/><text fill="#000000" font-family="sans-serif" font-size="14" lengthAdjust="spacing" textLength="119.834" x="166.9343" y="737.2843">Author assessment</text></g><!--entity UC_AnswerKey--><g class="entity" data-qualified-name="Authoring.UC_AnswerKey" data-source-line="329" id="ent0007"><ellipse cx="562.9832" cy="732.106" fill="#F1F1F1" rx="75.4832" ry="17.4966" style="stroke:#181818;stroke-width:0.5;"/><text fill="#000000" font-family="sans-serif" font-size="14" lengthAdjust="spacing" textLength="115.165" x="505.4006" y="737.4107">Define answer key</text></g><!--entity UC_Window--><g class="entity" data-qualified-name="Authoring.UC_Window" data-source-line="330" id="ent0008"><ellipse cx="563.1013" cy="811.0159" fill="#F1F1F1" rx="94.1013" ry="25.9065" style="stroke:#181818;stroke-width:0.5;"/><text fill="#000000" font-family="sans-serif" font-size="14" lengthAdjust="spacing" textLength="140.0684" x="493.0671" y="810.4754">Set availability window</text><text fill="#000000" font-family="sans-serif" font-size="14" lengthAdjust="spacing" textLength="80.1855" x="523.0085" y="828.0848">and deadline</text></g><!--entity UC_Publish--><g class="entity" data-qualified-name="Authoring.UC_Publish" data-source-line="331" id="ent0009"><ellipse cx="227.2451" cy="811.3584" fill="#F1F1F1" rx="79.2451" ry="18.249" style="stroke:#181818;stroke-width:0.5;"/><text fill="#000000" font-family="sans-serif" font-size="14" lengthAdjust="spacing" textLength="124.5029" x="164.9936" y="816.6631">Publish assessment</text></g><!--entity UC_Take--><g class="entity" data-qualified-name="Taking . grading.UC_Take" data-source-line="335" id="ent0011"><ellipse cx="226.8359" cy="335.1765" fill="#F1F1F1" rx="73.3359" ry="17.0672" style="stroke:#181818;stroke-width:0.5;"/><text fill="#000000" font-family="sans-serif" font-size="14" lengthAdjust="spacing" textLength="109.71" x="171.9809" y="340.4812">Take assessment</text></g><!--entity UC_SubmitWork--><g class="entity" data-qualified-name="Taking . grading.UC_SubmitWork" data-source-line="336" id="ent0012"><ellipse cx="226.9859" cy="265.1066" fill="#F1F1F1" rx="75.4859" ry="17.4972" style="stroke:#181818;stroke-width:0.5;"/><text fill="#000000" font-family="sans-serif" font-size="14" lengthAdjust="spacing" textLength="115.1719" x="169.3999" y="270.4112">Submit deliverable</text></g><!--entity UC_Eligibility--><g class="entity" data-qualified-name="Taking . grading.UC_Eligibility" data-source-line="337" id="ent0013"><ellipse cx="563.1206" cy="264.9329" fill="#F1F1F1" rx="74.1206" ry="26.3236" style="stroke:#181818;stroke-width:0.5;"/><text fill="#000000" font-family="sans-serif" font-size="14" lengthAdjust="spacing" textLength="107.3926" x="509.4243" y="263.7486">Validate eligibility</text><text fill="#000000" font-family="sans-serif" font-size="14" lengthAdjust="spacing" textLength="73.9375" x="526.1518" y="281.3579">and window</text></g><!--entity UC_AutoGrade--><g class="entity" data-qualified-name="Taking . grading.UC_AutoGrade" data-source-line="338" id="ent0014"><ellipse cx="562.9872" cy="477.2068" fill="#F1F1F1" rx="100.9872" ry="22.5974" style="stroke:#181818;stroke-width:0.5;"/><text fill="#000000" font-family="sans-serif" font-size="14" lengthAdjust="spacing" textLength="175.082" x="475.4462" y="482.5115">Grade attempt automatically</text></g><!--entity UC_RecordAttempt--><g class="entity" data-qualified-name="Taking . grading.UC_RecordAttempt" data-source-line="339" id="ent0015"><ellipse cx="902.1489" cy="524.2392" fill="#F1F1F1" rx="96.1489" ry="21.6298" style="stroke:#181818;stroke-width:0.5;"/><text fill="#000000" font-family="sans-serif" font-size="14" lengthAdjust="spacing" textLength="164.1787" x="820.0596" y="529.5439">Record immutable attempt</text></g><!--entity UC_Review--><g class="entity" data-qualified-name="Taking . grading.UC_Review" data-source-line="340" id="ent0016"><ellipse cx="227.0368" cy="483.07" fill="#F1F1F1" rx="84.5368" ry="26.9606" style="stroke:#181818;stroke-width:0.5;"/><text fill="#000000" font-family="sans-serif" font-size="14" lengthAdjust="spacing" textLength="99.6201" x="177.2268" y="478.2094">Review pending</text><text fill="#000000" font-family="sans-serif" font-size="14" lengthAdjust="spacing" textLength="119.8477" x="167.113" y="495.8188">paragraph answers</text></g><!--entity UC_ManualGrade--><g class="entity" data-qualified-name="Taking . grading.UC_ManualGrade" data-source-line="341" id="ent0017"><ellipse cx="226.9443" cy="567.9982" fill="#F1F1F1" rx="99.9443" ry="22.3889" style="stroke:#181818;stroke-width:0.5;"/><text fill="#000000" font-family="sans-serif" font-size="14" lengthAdjust="spacing" textLength="172.7441" x="140.5722" y="573.3029">Grade submission manually</text></g><!--entity UC_Gradebook--><g class="entity" data-qualified-name="Taking . grading.UC_Gradebook" data-source-line="342" id="ent0018"><ellipse cx="562.7688" cy="558.9631" fill="#F1F1F1" rx="69.7688" ry="16.3538" style="stroke:#181818;stroke-width:0.5;"/><text fill="#000000" font-family="sans-serif" font-size="14" lengthAdjust="spacing" textLength="100.3994" x="512.5691" y="564.2678">View gradebook</text></g><!--entity UC_OwnResults--><g class="entity" data-qualified-name="Taking . grading.UC_OwnResults" data-source-line="343" id="ent0019"><ellipse cx="227.0308" cy="404.3155" fill="#F1F1F1" rx="71.5308" ry="16.7062" style="stroke:#181818;stroke-width:0.5;"/><text fill="#000000" font-family="sans-serif" font-size="14" lengthAdjust="spacing" textLength="105.041" x="174.5103" y="409.6202">View own results</text></g><!--entity UC_Progress--><g class="entity" data-qualified-name="Taking . grading.UC_Progress" data-source-line="344" id="ent0020"><ellipse cx="227.202" cy="192.2498" fill="#F1F1F1" rx="88.702" ry="20.1404" style="stroke:#181818;stroke-width:0.5;"/><text fill="#000000" font-family="sans-serif" font-size="14" lengthAdjust="spacing" textLength="147.0615" x="153.6713" y="197.5545">Track learning progress</text></g><!--entity Student--><g class="entity" data-qualified-name="Student" data-source-line="322" id="ent0001"><ellipse cx="34.793" cy="269.6094" fill="#F1F1F1" rx="16" ry="16" style="stroke:#181818;stroke-width:0.5;"/><path d="M34.793,289.6094 C38.793,289.6094 41.793,289.6094 45.793,285.6094 C53.793,285.6094 61.793,293.6094 61.793,301.6094 L61.793,305.6094 C61.793,309.6094 57.793,313.6094 53.793,313.6094 L15.793,313.6094 C11.793,313.6094 7.793,309.6094 7.793,305.6094 L7.793,301.6094 C7.793,293.6094 15.793,285.6094 23.793,285.6094 C27.793,289.6094 30.793,289.6094 34.793,289.6094" fill="#F1F1F1" style="stroke:#181818;stroke-width:0.5;"/><text fill="#000000" font-family="sans-serif" font-size="14" lengthAdjust="spacing" textLength="47.4688" x="6" y="328.6426">Trainee</text><text fill="#000000" font-family="sans-serif" font-size="14" lengthAdjust="spacing" textLength="57.5859" x="6" y="346.252">(Student)</text></g><!--entity Trainer--><g class="entity" data-qualified-name="Trainer" data-source-line="323" id="ent0002"><ellipse cx="35" cy="621.1094" fill="#F1F1F1" rx="16" ry="16" style="stroke:#181818;stroke-width:0.5;"/><path d="M35,641.1094 C39,641.1094 42,641.1094 46,637.1094 C54,637.1094 62,645.1094 62,653.1094 L62,657.1094 C62,661.1094 58,665.1094 54,665.1094 L16,665.1094 C12,665.1094 8,661.1094 8,657.1094 L8,653.1094 C8,645.1094 16,637.1094 24,637.1094 C28,641.1094 31,641.1094 35,641.1094" fill="#F1F1F1" style="stroke:#181818;stroke-width:0.5;"/><text fill="#000000" font-family="sans-serif" font-size="14" lengthAdjust="spacing" textLength="44.3447" x="12.8276" y="680.1426">Trainer</text></g><!--entity Grader--><g class="entity" data-qualified-name="Grader" data-source-line="324" id="ent0003"><ellipse cx="1178.6895" cy="435.2188" fill="#F1F1F1" rx="16" ry="16" style="stroke:#181818;stroke-width:0.5;"/><path d="M1178.6895,455.2188 C1182.6895,455.2188 1185.6895,455.2188 1189.6895,451.2188 C1197.6895,451.2188 1205.6895,459.2188 1205.6895,467.2188 L1205.6895,471.2188 C1205.6895,475.2188 1201.6895,479.2188 1197.6895,479.2188 L1159.6895,479.2188 C1155.6895,479.2188 1151.6895,475.2188 1151.6895,471.2188 L1151.6895,467.2188 C1151.6895,459.2188 1159.6895,451.2188 1167.6895,451.2188 C1171.6895,455.2188 1174.6895,455.2188 1178.6895,455.2188" fill="#F1F1F1" style="stroke:#181818;stroke-width:0.5;"/><text fill="#000000" font-family="sans-serif" font-size="14" lengthAdjust="spacing" textLength="100.3789" x="1128.5" y="494.252">Grading Service</text><text fill="#000000" font-family="sans-serif" font-size="14" font-style="italic" lengthAdjust="spacing" textLength="59.9102" x="1148.7344" y="415.6426">&#171;system&#187;</text></g><!--entity Notifier--><g class="entity" data-qualified-name="Notifier" data-source-line="325" id="ent0004"><ellipse cx="562.9136" cy="906.2188" fill="#F1F1F1" rx="16" ry="16" style="stroke:#181818;stroke-width:0.5;"/><path d="M562.9136,926.2188 C566.9136,926.2188 569.9136,926.2188 573.9136,922.2188 C581.9136,922.2188 589.9136,930.2188 589.9136,938.2188 L589.9136,942.2188 C589.9136,946.2188 585.9136,950.2188 581.9136,950.2188 L543.9136,950.2188 C539.9136,950.2188 535.9136,946.2188 535.9136,942.2188 L535.9136,938.2188 C535.9136,930.2188 543.9136,922.2188 551.9136,922.2188 C555.9136,926.2188 558.9136,926.2188 562.9136,926.2188" fill="#F1F1F1" style="stroke:#181818;stroke-width:0.5;"/><text fill="#000000" font-family="sans-serif" font-size="14" lengthAdjust="spacing" textLength="119.8271" x="503" y="965.252">Notification Service</text><text fill="#000000" font-family="sans-serif" font-size="14" font-style="italic" lengthAdjust="spacing" textLength="59.9102" x="532.9585" y="886.6426">&#171;system&#187;</text></g><g class="entity" data-qualified-name="GMN41" data-source-line="372" id="ent0042"><path d="M799,702.6094 L799,728.1094 L638.79,732.1094 L799,736.1094 L799,761.6641 A0,0 0 0 0 799,761.6641 L1004.958,761.6641 A0,0 0 0 0 1004.958,761.6641 L1004.958,712.6094 L994.958,702.6094 L799,702.6094 A0,0 0 0 0 799,702.6094" fill="#FEFFDD" style="stroke:#181818;stroke-width:0.5;"/><path d="M994.958,702.6094 L994.958,712.6094 L1004.958,712.6094 L994.958,702.6094" fill="#FEFFDD" style="stroke:#181818;stroke-width:0.5;"/><text fill="#000000" font-family="sans-serif" font-size="13" lengthAdjust="spacing" textLength="184.958" x="805" y="721.1045">Correct answers live in a private</text><text fill="#000000" font-family="sans-serif" font-size="13" lengthAdjust="spacing" textLength="132.2471" x="805" y="737.4561">document, never in the</text><text fill="#000000" font-family="sans-serif" font-size="13" lengthAdjust="spacing" textLength="171.2598" x="805" y="753.8076">trainee-readable assessment.</text></g><g class="entity" data-qualified-name="GMN44" data-source-line="378" id="ent0045"><path d="M1066,532.6094 L1066,547.3894 L979.46,536.9194 L1066,555.3894 L1066,608.0156 A0,0 0 0 0 1066,608.0156 L1291.4897,608.0156 A0,0 0 0 0 1291.4897,608.0156 L1291.4897,542.6094 L1281.4897,532.6094 L1066,532.6094 A0,0 0 0 0 1066,532.6094" fill="#FEFFDD" style="stroke:#181818;stroke-width:0.5;"/><path d="M1281.4897,532.6094 L1281.4897,542.6094 L1291.4897,542.6094 L1281.4897,532.6094" fill="#FEFFDD" style="stroke:#181818;stroke-width:0.5;"/><text fill="#000000" font-family="sans-serif" font-size="13" lengthAdjust="spacing" textLength="187.1543" x="1072" y="551.1045">Attempts are created only by the</text><text fill="#000000" font-family="sans-serif" font-size="13" lengthAdjust="spacing" textLength="204.4897" x="1072" y="567.4561">Grading Service and are immutable</text><text fill="#000000" font-family="sans-serif" font-size="13" lengthAdjust="spacing" textLength="198.6943" x="1072" y="583.8076">afterwards. Browser clients cannot</text><text fill="#000000" font-family="sans-serif" font-size="13" lengthAdjust="spacing" textLength="109.1162" x="1072" y="600.1592">create or alter one.</text></g><g class="entity" data-qualified-name="GMN47" data-source-line="385" id="ent0048"><path d="M444,44.6094 L444,120.0156 A0,0 0 0 0 444,120.0156 L559,120.0156 L563,238.2994 L567,120.0156 L681.7471,120.0156 A0,0 0 0 0 681.7471,120.0156 L681.7471,54.6094 L671.7471,44.6094 L444,44.6094 A0,0 0 0 0 444,44.6094" fill="#FEFFDD" style="stroke:#181818;stroke-width:0.5;"/><path d="M671.7471,44.6094 L671.7471,54.6094 L681.7471,54.6094 L671.7471,44.6094" fill="#FEFFDD" style="stroke:#181818;stroke-width:0.5;"/><text fill="#000000" font-family="sans-serif" font-size="13" lengthAdjust="spacing" textLength="212.437" x="450" y="63.1045">Checks caller, enrolment, publication</text><text fill="#000000" font-family="sans-serif" font-size="13" lengthAdjust="spacing" textLength="192.9243" x="450" y="79.4561">state, availability window, attempt</text><text fill="#000000" font-family="sans-serif" font-size="13" lengthAdjust="spacing" textLength="216.7471" x="450" y="95.8076">limit and time limit. A missed deadline</text><text fill="#000000" font-family="sans-serif" font-size="13" lengthAdjust="spacing" textLength="213.1543" x="450" y="112.1592">scores zero without a stored attempt.</text></g><!--link Trainer to UC_Author--><g class="link" data-entity-1="ent0002" data-entity-2="ent0006" data-link-type="dependency" data-source-line="347" id="lnk21"><path d="M62.82,656.5294 C96.47,672.1194 149.7232,696.7777 186.7232,713.9177" fill="none" id="Trainer-to-UC_Author" style="stroke:#181818;stroke-width:1;"/><polygon fill="#181818" points="191.26,716.0194,184.775,708.6069,186.7232,713.9177,181.4123,715.8659,191.26,716.0194" style="stroke:#181818;stroke-width:1;stroke-linejoin:miter;stroke-miterlimit:10;"/></g><!--link Trainer to UC_Publish--><g class="link" data-entity-1="ent0002" data-entity-2="ent0009" data-link-type="dependency" data-source-line="348" id="lnk22"><path d="M48.98,683.6394 C59.65,710.5094 77.23,745.0594 103,767.1094 C121.09,782.5894 140.253,791.3356 162.203,797.9556" fill="none" id="Trainer-to-UC_Publish" style="stroke:#181818;stroke-width:1;"/><polygon fill="#181818" points="166.99,799.3994,159.5283,792.971,162.203,797.9556,157.2184,800.6303,166.99,799.3994" style="stroke:#181818;stroke-width:1;stroke-linejoin:miter;stroke-miterlimit:10;"/></g><!--link Trainer to UC_Review--><g class="link" data-entity-1="ent0002" data-entity-2="ent0016" data-link-type="dependency" data-source-line="349" id="lnk23"><path d="M50.65,604.3994 C61.65,579.4594 78.96,548.3094 103,528.1094 C118.67,514.9394 133.8033,507.1286 152.9633,500.3886" fill="none" id="Trainer-to-UC_Review" style="stroke:#181818;stroke-width:1;"/><polygon fill="#181818" points="157.68,498.7294,147.8626,497.9426,152.9633,500.3886,150.5173,505.4893,157.68,498.7294" style="stroke:#181818;stroke-width:1;stroke-linejoin:miter;stroke-miterlimit:10;"/></g><!--link Trainer to UC_ManualGrade--><g class="link" data-entity-1="ent0002" data-entity-2="ent0017" data-link-type="dependency" data-source-line="350" id="lnk24"><path d="M62.71,631.7394 C72.5,627.3094 83.7,622.3694 94,618.1094 C119.93,607.3994 144.3831,598.001 168.6831,588.971" fill="none" id="Trainer-to-UC_ManualGrade" style="stroke:#181818;stroke-width:1;"/><polygon fill="#181818" points="173.37,587.2294,163.5403,586.6149,168.6831,588.971,166.327,594.1138,173.37,587.2294" style="stroke:#181818;stroke-width:1;stroke-linejoin:miter;stroke-miterlimit:10;"/></g><!--link Trainer to UC_Gradebook--><g class="link" data-entity-1="ent0002" data-entity-2="ent0018" data-link-type="dependency" data-source-line="351" id="lnk25"><path d="M62.59,641.5594 C113.9,636.4794 230.08,624.1794 327,608.1094 C391.55,597.4094 460.4345,582.5082 507.8345,571.7282" fill="none" id="Trainer-to-UC_Gradebook" style="stroke:#181818;stroke-width:1;"/><polygon fill="#181818" points="512.71,570.6194,503.047,568.7148,507.8345,571.7282,504.8211,576.5156,512.71,570.6194" style="stroke:#181818;stroke-width:1;stroke-linejoin:miter;stroke-miterlimit:10;"/></g><!--link Student to UC_Take--><g class="link" data-entity-1="ent0001" data-entity-2="ent0011" data-link-type="dependency" data-source-line="353" id="lnk26"><path d="M64.04,306.1294 C91.39,311.0194 128.8983,317.7281 163.4683,323.9181" fill="none" id="Student-to-UC_Take" style="stroke:#181818;stroke-width:1;"/><polygon fill="#181818" points="168.39,324.7994,160.2359,319.2757,163.4683,323.9181,158.8259,327.1505,168.39,324.7994" style="stroke:#181818;stroke-width:1;stroke-linejoin:miter;stroke-miterlimit:10;"/></g><!--link Student to UC_SubmitWork--><g class="link" data-entity-1="ent0001" data-entity-2="ent0012" data-link-type="dependency" data-source-line="354" id="lnk27"><path d="M64.04,295.7994 C91.29,290.6294 128.5875,283.5709 163.0775,277.0309" fill="none" id="Student-to-UC_SubmitWork" style="stroke:#181818;stroke-width:1;"/><polygon fill="#181818" points="167.99,276.0994,158.4024,273.8461,163.0775,277.0309,159.8928,281.7061,167.99,276.0994" style="stroke:#181818;stroke-width:1;stroke-linejoin:miter;stroke-miterlimit:10;"/></g><!--link Student to UC_OwnResults--><g class="link" data-entity-1="ent0001" data-entity-2="ent0019" data-link-type="dependency" data-source-line="355" id="lnk28"><path d="M64.11,336.3194 C75.13,348.1894 88.6,360.5794 103,369.1094 C123.05,380.9994 142.4946,387.8257 164.1746,393.1557" fill="none" id="Student-to-UC_OwnResults" style="stroke:#181818;stroke-width:1;"/><polygon fill="#181818" points="169.03,394.3494,161.2452,388.3164,164.1746,393.1557,159.3353,396.0851,169.03,394.3494" style="stroke:#181818;stroke-width:1;stroke-linejoin:miter;stroke-miterlimit:10;"/></g><!--link Student to UC_Progress--><g class="link" data-entity-1="ent0001" data-entity-2="ent0020" data-link-type="dependency" data-source-line="356" id="lnk29"><path d="M64.29,264.1294 C75.24,251.8594 88.61,239.0694 103,230.1094 C120.45,219.2394 136.4539,212.6826 155.9339,206.9426" fill="none" id="Student-to-UC_Progress" style="stroke:#181818;stroke-width:1;"/><polygon fill="#181818" points="160.73,205.5294,150.9664,204.2363,155.9339,206.9426,153.2276,211.9101,160.73,205.5294" style="stroke:#181818;stroke-width:1;stroke-linejoin:miter;stroke-miterlimit:10;"/></g><!--link UC_AutoGrade to Grader--><g class="link" data-entity-1="ent0014" data-entity-2="ent0003" data-link-type="dependency" data-source-line="358" id="lnk30"><path d="M662.23,472.6294 C795.26,466.5594 1022.6552,456.1772 1123.4952,451.5772" fill="none" id="UC_AutoGrade-to-Grader" style="stroke:#181818;stroke-width:1;"/><polygon fill="#181818" points="1128.49,451.3494,1119.3171,447.7637,1123.4952,451.5772,1119.6816,455.7553,1128.49,451.3494" style="stroke:#181818;stroke-width:1;stroke-linejoin:miter;stroke-miterlimit:10;"/></g><!--link UC_RecordAttempt to Grader--><g class="link" data-entity-1="ent0015" data-entity-2="ent0003" data-link-type="dependency" data-source-line="359" id="lnk31"><path d="M963.58,507.5594 C1013,494.0594 1077.1167,476.5368 1123.2467,463.9368" fill="none" id="UC_RecordAttempt-to-Grader" style="stroke:#181818;stroke-width:1;"/><polygon fill="#181818" points="1128.07,462.6194,1118.3341,461.1321,1123.2467,463.9368,1120.442,468.8494,1128.07,462.6194" style="stroke:#181818;stroke-width:1;stroke-linejoin:miter;stroke-miterlimit:10;"/></g><!--link UC_Publish to Notifier--><g class="link" data-entity-1="ent0009" data-entity-2="ent0004" data-link-type="dependency" data-source-line="360" id="lnk32"><path d="M273.04,825.8094 C332.43,845.1894 432.2967,877.7782 498.0267,899.2282" fill="none" id="UC_Publish-to-Notifier" style="stroke:#181818;stroke-width:1;"/><polygon fill="#181818" points="502.78,900.7794,495.465,894.1846,498.0267,899.2282,492.9831,901.7899,502.78,900.7794" style="stroke:#181818;stroke-width:1;stroke-linejoin:miter;stroke-miterlimit:10;"/></g><!--link UC_Author to UC_AnswerKey--><g class="link" data-entity-1="ent0006" data-entity-2="ent0007" data-link-type="dependency" data-source-line="362" id="lnk33"><path d="M304.63,732.1094 C359.52,732.1094 428.04,732.1094 482.45,732.1094" fill="none" id="UC_Author-to-UC_AnswerKey" style="stroke:#181818;stroke-width:1;stroke-dasharray:7,7;"/><polygon fill="#181818" points="487.45,732.1094,478.45,728.1094,482.45,732.1094,478.45,736.1094,487.45,732.1094" style="stroke:#181818;stroke-width:1;stroke-linejoin:miter;stroke-miterlimit:10;"/><text fill="#000000" font-family="sans-serif" font-size="13" lengthAdjust="spacing" textLength="55.6563" x="358" y="728.6045">&#171;include&#187;</text></g><!--link UC_Author to UC_Window--><g class="link" data-entity-1="ent0006" data-entity-2="ent0008" data-link-type="dependency" data-source-line="363" id="lnk34"><path d="M282.03,744.8894 C338.81,758.3194 423.5042,778.3485 485.9942,793.1285" fill="none" id="UC_Author-to-UC_Window" style="stroke:#181818;stroke-width:1;stroke-dasharray:7,7;"/><polygon fill="#181818" points="490.86,794.2794,483.0223,788.3153,485.9942,793.1285,481.181,796.1005,490.86,794.2794" style="stroke:#181818;stroke-width:1;stroke-linejoin:miter;stroke-miterlimit:10;"/><text fill="#000000" font-family="sans-serif" font-size="13" lengthAdjust="spacing" textLength="55.6563" x="358" y="761.6045">&#171;include&#187;</text></g><!--link UC_Take to UC_Eligibility--><g class="link" data-entity-1="ent0011" data-entity-2="ent0013" data-link-type="dependency" data-source-line="364" id="lnk35"><path d="M282.03,323.7894 C341.21,311.3794 431.1063,292.5451 493.7463,279.4151" fill="none" id="UC_Take-to-UC_Eligibility" style="stroke:#181818;stroke-width:1;stroke-dasharray:7,7;"/><polygon fill="#181818" points="498.64,278.3894,489.0108,276.3208,493.7463,279.4151,490.652,284.1507,498.64,278.3894" style="stroke:#181818;stroke-width:1;stroke-linejoin:miter;stroke-miterlimit:10;"/><text fill="#000000" font-family="sans-serif" font-size="13" lengthAdjust="spacing" textLength="55.6563" x="358" y="294.6045">&#171;include&#187;</text></g><!--link UC_Take to UC_AutoGrade--><g class="link" data-entity-1="ent0011" data-entity-2="ent0014" data-link-type="dependency" data-source-line="365" id="lnk36"><path d="M269.73,348.9494 C287.51,355.0894 308.4,362.6094 327,370.1094 C395.59,397.7894 468.8832,432.0739 515.5232,454.4839" fill="none" id="UC_Take-to-UC_AutoGrade" style="stroke:#181818;stroke-width:1;stroke-dasharray:7,7;"/><polygon fill="#181818" points="520.03,456.6494,513.6502,449.1462,515.5232,454.4839,510.1855,456.357,520.03,456.6494" style="stroke:#181818;stroke-width:1;stroke-linejoin:miter;stroke-miterlimit:10;"/><text fill="#000000" font-family="sans-serif" font-size="13" lengthAdjust="spacing" textLength="55.6563" x="358" y="380.6045">&#171;include&#187;</text></g><!--link UC_AutoGrade to UC_RecordAttempt--><g class="link" data-entity-1="ent0014" data-entity-2="ent0015" data-link-type="dependency" data-source-line="366" id="lnk37"><path d="M649.04,488.9694 C701.49,496.2894 763.428,504.9184 815.098,512.1284" fill="none" id="UC_AutoGrade-to-UC_RecordAttempt" style="stroke:#181818;stroke-width:1;stroke-dasharray:7,7;"/><polygon fill="#181818" points="820.05,512.8194,811.6892,507.614,815.098,512.1284,810.5836,515.5372,820.05,512.8194" style="stroke:#181818;stroke-width:1;stroke-linejoin:miter;stroke-miterlimit:10;"/><text fill="#000000" font-family="sans-serif" font-size="13" lengthAdjust="spacing" textLength="55.6563" x="713" y="494.6045">&#171;include&#187;</text></g><!--link UC_SubmitWork to UC_Eligibility--><g class="link" data-entity-1="ent0012" data-entity-2="ent0013" data-link-type="dependency" data-source-line="367" id="lnk38"><path d="M302.54,265.1094 C358.1,265.1094 428.61,265.1094 483.84,265.1094" fill="none" id="UC_SubmitWork-to-UC_Eligibility" style="stroke:#181818;stroke-width:1;stroke-dasharray:7,7;"/><polygon fill="#181818" points="488.84,265.1094,479.84,261.1094,483.84,265.1094,479.84,269.1094,488.84,265.1094" style="stroke:#181818;stroke-width:1;stroke-linejoin:miter;stroke-miterlimit:10;"/><text fill="#000000" font-family="sans-serif" font-size="13" lengthAdjust="spacing" textLength="55.6563" x="358" y="261.6045">&#171;include&#187;</text></g><!--link UC_Review to UC_AutoGrade--><g class="link" data-entity-1="ent0016" data-entity-2="ent0014" data-link-type="dependency" data-source-line="368" id="lnk39"><path d="M311.42,481.6094 C357.12,480.7894 409.0608,479.8599 457.1208,478.9899" fill="none" id="UC_Review-to-UC_AutoGrade" style="stroke:#181818;stroke-width:1;stroke-dasharray:7,7;"/><polygon fill="#181818" points="462.12,478.8994,453.0491,475.0629,457.1208,478.9899,453.1939,483.0616,462.12,478.8994" style="stroke:#181818;stroke-width:1;stroke-linejoin:miter;stroke-miterlimit:10;"/><text fill="#000000" font-family="sans-serif" font-size="13" lengthAdjust="spacing" textLength="53.4917" x="359" y="476.6045">&#171;extend&#187;</text></g><!--link UC_ManualGrade to UC_Gradebook--><g class="link" data-entity-1="ent0017" data-entity-2="ent0018" data-link-type="dependency" data-source-line="369" id="lnk40"><path d="M326.4,565.4594 C380.09,564.0094 440.2318,562.3943 488.3918,561.0943" fill="none" id="UC_ManualGrade-to-UC_Gradebook" style="stroke:#181818;stroke-width:1;stroke-dasharray:7,7;"/><polygon fill="#181818" points="493.39,560.9594,484.2853,557.2037,488.3918,561.0943,484.5012,565.2008,493.39,560.9594" style="stroke:#181818;stroke-width:1;stroke-linejoin:miter;stroke-miterlimit:10;"/><text fill="#000000" font-family="sans-serif" font-size="13" lengthAdjust="spacing" textLength="55.6563" x="358" y="560.6045">&#171;include&#187;</text></g><?plantuml-src ZLN1Rjim3BtxAuWSYWr8ym534I3hXXs6RKNJjPS20sCpYH1P2YGvdZVitqTPaYCxmR2RpVT8aHJvv8IJ12jhoTgQb8CR-6Im4cfN59As3fm68tPx1vKmL3gXLM4FGXtHO0rsZvLkcGnRb9Oov8Zb0NUqTXs7zuweTZ8dOEcq2J2sP7LDHT7ROFPaK2YYL_LcxPgAatex0xGGVyOiqqFnEq6n0bYJEOcIUegtaO6xEzjPH_LocSXVjHDRKQ8lRUGHWB5FCPG2irNZzjhmEJFuNG0qbagqWvqZf9xsqRxV_mX0Jlr0MyuRKDcMppbGDr1xosVgSlQQ7E09XSIDaC9rm9tdzhygL1LKX9NaO2d2Iu_bxW_DHWgxlv9OH8e_e_gUyE2RU0ExqCv9cGpJbLZUF4gwsTI2fuUaE971ZHmo3CYBDeUS_unILEW8s64dGg6Xmb1jylvuXdFt_fe17L_NaRlLE5tppPOePPTTW-vfkTyZbTfK8EgwSJx9528v1NmLZ6F7aw0MZgHyZrxxwUQ67VVnLkqvWYTUvcfz6wprqrUZQl9Cl_J_5xa--mFzfT16wqCYVqg62wfk5Q-WRQGRaldMgiTW6LsfuQq5IMYKl_cZqJls6vmUuh-VaxXnS7kxp4PxOarpDJ77JaoiUR4Jw5nQ4KKW8VsqJMpPN4sGhEe9CfHMv0FIeq4uYkaCJB2qNDwQX2C5ysgmM2n7UmtlM5Q4AYMdmRfoGGphUydgjovoiXNuD_5SqBLJ8nIvuo8l-EVc_bSMSJkkva4_7IzDu6MNdyZ3fK-Y5agpEeGtIM-dOdclZPUmj7pWLGU40kHf5YVM5UPKkcoyPCr14MkIXztU0ouyFBU6jJI8m21lYu9p1N_qbGIcuX2_BA0XA3cQemgqaXrikdZKv8a2Bt2UFGWGSt3hoBHeAhk0zqQtbdCjfU1iB9IeE0qcXV3W7np9T3w6BdBTQCSw69CT2-Vzdig33oSbcJcGCbg6tXpzH8TdaNdMyIdpQy_FF4abiwJmMkzhSQAcyBk05NY1e_CRvUDnnyZ2BpAQu_3aD-p7fx2rIW6pElu2?></g></svg>